M48
; DRILL file {KiCad 7.0.1} date Mon Mar 20 13:50:06 2023
; FORMAT={-:-/ absolute / metric / decimal}
; #@! TF.CreationDate,2023-03-20T13:50:06+07:00
; #@! TF.GenerationSoftware,Kicad,Pcbnew,7.0.1
; #@! TF.FileFunction,MixedPlating,1,2
FMAT,2
METRIC
; #@! TA.AperFunction,Plated,PTH,ViaDrill
T1C0.200
; #@! TA.AperFunction,Plated,PTH,ComponentDrill
T2C0.200
; #@! TA.AperFunction,Plated,PTH,ViaDrill
T3C0.300
; #@! TA.AperFunction,Plated,PTH,ViaDrill
T4C0.400
; #@! TA.AperFunction,Plated,PTH,ComponentDrill
T5C0.500
; #@! TA.AperFunction,Plated,PTH,ComponentDrill
T6C0.762
; #@! TA.AperFunction,Plated,PTH,ComponentDrill
T7C0.800
; #@! TA.AperFunction,Plated,PTH,ComponentDrill
T8C0.900
; #@! TA.AperFunction,Plated,PTH,ComponentDrill
T9C1.000
; #@! TA.AperFunction,Plated,PTH,ComponentDrill
T10C1.100
; #@! TA.AperFunction,Plated,PTH,ComponentDrill
T11C1.400
; #@! TA.AperFunction,Plated,PTH,ComponentDrill
T12C1.500
; #@! TA.AperFunction,Plated,PTH,ComponentDrill
T13C1.650
; #@! TA.AperFunction,Plated,PTH,ComponentDrill
T14C1.800
; #@! TA.AperFunction,Plated,PTH,ComponentDrill
T15C3.200
; #@! TA.AperFunction,NonPlated,NPTH,ComponentDrill
T16C1.245
%
G90
G05
T1
X85.75Y-86.0
X86.75Y-71.5
X86.75Y-73.75
X86.75Y-79.25
X86.75Y-81.25
X117.388Y-83.329
X119.002Y-84.884
T2
X97.2Y-48.673
X97.2Y-50.198
X97.962Y-47.911
X97.962Y-49.436
X97.962Y-50.961
X98.725Y-48.673
X98.725Y-50.198
X99.487Y-47.911
X99.487Y-49.436
X99.487Y-50.961
X100.25Y-48.673
X100.25Y-50.198
T3
X76.69Y-136.08
X83.55Y-133.15
X84.625Y-136.07
X85.5Y-64.26
X85.95Y-131.1
X86.25Y-64.26
X87.0Y-64.26
X87.241Y-45.0
X87.75Y-64.26
X88.0Y-51.741
X88.0Y-52.75
X88.25Y-45.0
X88.3Y-63.2
X88.99Y-70.41
X89.414Y-129.642
X89.54Y-121.14
X89.75Y-85.5
X90.05Y-77.95
X91.55Y-132.95
X91.95Y-121.14
X92.0Y-45.906
X92.0Y-47.176
X92.0Y-48.446
X92.0Y-49.716
X92.01Y-44.625
X92.45Y-128.3
X92.57Y-136.07
X92.8Y-62.5
X93.0Y-52.475
X94.25Y-53.099
X94.31Y-121.13
X94.9Y-65.5
X95.23Y-129.593
X95.25Y-78.6
X95.5Y-53.75
X95.5Y-80.8
X95.5Y-83.0
X95.55Y-85.25
X95.65Y-65.55
X95.65Y-72.7
X95.65Y-73.4
X95.65Y-74.05
X95.74Y-111.135
X95.75Y-110.375
X96.25Y-54.75
X96.45Y-65.5
X97.4Y-133.1
X97.75Y-64.25
X97.75Y-73.55
X98.0Y-121.13
X98.95Y-128.45
X99.75Y-73.55
X100.55Y-136.11
X100.95Y-76.55
X101.126Y-99.6
X101.27Y-87.58
X101.774Y-98.975
X102.75Y-81.0
X103.0Y-92.5
X103.0Y-95.0
X103.0Y-97.5
X103.35Y-73.55
X103.75Y-126.0
X103.9Y-139.5
X104.2Y-116.0
X104.5Y-47.0
X104.5Y-81.0
X105.0Y-125.0
X105.25Y-46.25
X105.65Y-54.8
X105.7Y-74.7
X106.05Y-136.3
X106.25Y-124.0
X106.35Y-100.225
X106.6Y-56.05
X106.7Y-74.4
X107.545Y-123.0
X108.15Y-66.6
X108.8Y-127.2
X109.21Y-136.05
X109.49Y-68.87
X109.6Y-117.2
X109.6Y-118.4
X110.0Y-78.45
X110.0Y-81.15
X110.085Y-126.0
X111.23Y-97.77
X112.45Y-139.5
X112.5Y-83.75
X114.72Y-76.8
X115.74Y-128.72
X116.05Y-133.261
X117.03Y-136.06
X117.07Y-121.13
X117.3Y-62.3
X118.0Y-81.17
X118.0Y-90.0
X118.23Y-87.545
X118.25Y-82.0
X118.3Y-61.8
X118.49Y-121.14
X118.65Y-88.25
X119.3Y-60.8
X119.3Y-79.702
X120.0Y-60.1
X120.25Y-100.0
X120.36Y-90.0
X120.4Y-139.5
X120.75Y-129.642
X120.8Y-59.3
X121.01Y-121.13
X121.25Y-72.0
X121.295Y-81.705
X121.6Y-58.6
X121.96Y-74.174
X122.1Y-60.9
X122.15Y-133.05
X122.75Y-64.25
X123.0Y-61.7
X123.0Y-63.3
X123.48Y-121.15
X123.75Y-128.317
X124.1Y-56.1
X125.01Y-136.05
X125.3Y-54.9
X125.99Y-121.13
X126.1Y-54.1
X126.52Y-129.593
X126.6Y-78.6
X127.45Y-53.35
X127.45Y-55.8
X127.75Y-58.25
X127.75Y-59.5
X127.75Y-60.75
X128.25Y-80.55
X128.8Y-121.2
X128.95Y-61.2
X129.81Y-129.58
X130.9Y-133.6
X131.0Y-107.0
X131.2Y-79.3
X131.9Y-131.2
X132.32Y-85.49
X132.35Y-86.49
X132.47Y-79.39
X133.06Y-136.09
X133.345Y-46.555
X133.35Y-60.1
X133.46Y-86.49
X133.47Y-79.39
X134.25Y-57.75
X134.35Y-56.15
X134.46Y-86.49
X134.47Y-79.39
X135.46Y-86.49
X135.47Y-79.39
X135.5Y-57.0
X135.55Y-53.525
X135.57Y-129.58
X135.945Y-107.94
X136.46Y-86.49
X136.47Y-79.39
X137.46Y-86.49
X137.47Y-79.39
X138.0Y-41.75
X138.46Y-80.49
X138.46Y-81.49
X138.46Y-82.49
X138.46Y-83.49
X138.46Y-84.49
X138.46Y-85.49
X138.46Y-86.49
X138.5Y-79.39
X138.7Y-41.75
X138.75Y-50.3
X139.4Y-41.75
X139.7Y-107.7
X139.75Y-62.5
X141.1Y-50.3
X141.5Y-62.5
X141.67Y-136.11
X142.75Y-54.5
X142.75Y-55.5
X142.75Y-56.5
X143.1Y-59.9
X143.25Y-62.5
X143.45Y-97.5
X144.01Y-121.13
X145.25Y-62.5
X145.8Y-106.6
X145.85Y-98.15
X146.4Y-61.2
X146.8Y-119.8
X147.85Y-107.7
X148.19Y-128.64
X149.45Y-121.1
X149.62Y-136.11
X150.05Y-59.9
X150.65Y-39.1
X150.72Y-121.13
X151.35Y-107.75
X152.55Y-37.55
X152.55Y-39.9
X152.821Y-129.642
X153.25Y-121.14
X153.85Y-53.55
X155.71Y-121.13
X156.15Y-128.45
X157.74Y-136.11
X158.25Y-121.14
X158.792Y-129.593
X160.04Y-121.08
X160.38Y-65.5
X160.55Y-63.0
X160.6Y-77.45
X161.6Y-128.5
X162.47Y-127.2
X163.27Y-82.41
X163.3Y-81.7
X164.1Y-128.5
X165.0Y-61.75
X165.042Y-54.453
X165.64Y-136.11
X166.0Y-117.6
X166.25Y-61.75
X168.4Y-116.4
X168.925Y-126.0
X169.25Y-59.5
X169.25Y-60.5
X170.195Y-125.0
X171.465Y-124.0
X172.25Y-60.75
X172.735Y-123.0
X174.0Y-123.09
X174.25Y-136.11
X177.6Y-125.5
X179.6Y-125.5
X182.29Y-136.11
X183.09Y-121.16
X185.5Y-129.642
X185.59Y-121.17
X187.25Y-133.0
X188.08Y-121.18
X188.5Y-128.35
X190.24Y-136.11
X190.59Y-121.18
X191.24Y-129.61
X194.0Y-139.25
X195.25Y-139.25
X203.25Y-139.75
X207.25Y-150.0
X213.5Y-150.0
T4
X81.6Y-140.8
X81.61Y-137.73
X81.61Y-139.4
X87.165Y-121.13
X89.59Y-140.8
X89.6Y-137.73
X89.6Y-139.4
X95.74Y-109.565
X97.39Y-140.8
X97.4Y-137.8
X97.4Y-139.4
X97.52Y-127.0
X99.8Y-85.92
X99.97Y-131.08
X101.195Y-131.08
X102.465Y-131.08
X103.735Y-131.08
X105.005Y-131.08
X105.95Y-140.8
X105.96Y-137.78
X105.96Y-139.4
X106.275Y-131.08
X107.545Y-131.08
X108.815Y-131.08
X114.14Y-140.8
X114.15Y-137.73
X114.15Y-139.4
X118.0Y-98.75
X122.19Y-140.8
X122.2Y-137.78
X122.2Y-139.4
X130.29Y-140.8
X130.3Y-137.88
X130.3Y-139.4
X138.49Y-140.8
X138.5Y-137.83
X138.5Y-139.4
X146.74Y-140.8
X146.75Y-137.83
X146.75Y-139.4
X154.69Y-140.8
X154.7Y-137.83
X154.7Y-139.4
X162.84Y-140.8
X162.85Y-137.83
X162.85Y-139.4
X163.75Y-112.0
X163.75Y-113.0
X163.75Y-114.4
X163.75Y-115.4
X165.03Y-131.09
X166.385Y-131.08
X167.655Y-131.08
X168.925Y-131.08
X170.195Y-131.08
X171.09Y-140.55
X171.1Y-137.73
X171.1Y-139.4
X171.465Y-131.08
X172.735Y-131.08
X174.005Y-131.08
X179.14Y-140.8
X179.15Y-137.73
X179.15Y-139.4
X180.45Y-121.18
X187.34Y-140.8
X187.35Y-137.73
X187.35Y-139.4
X195.63Y-135.79
X211.3Y-124.63
T5
X76.1Y-54.5
X76.1Y-129.5
X76.803Y-52.803
X76.803Y-56.197
X76.803Y-127.803
X76.803Y-131.197
X78.5Y-52.1
X78.5Y-56.9
X78.5Y-127.1
X78.5Y-131.9
X80.197Y-52.803
X80.197Y-56.197
X80.197Y-127.803
X80.197Y-131.197
X80.9Y-54.5
X80.9Y-129.5
X196.1Y-54.5
X196.1Y-129.5
X196.803Y-52.803
X196.803Y-56.197
X196.803Y-127.803
X196.803Y-131.197
X198.5Y-52.1
X198.5Y-56.9
X198.5Y-127.1
X198.5Y-131.9
X200.197Y-52.803
X200.197Y-56.197
X200.197Y-127.803
X200.197Y-131.197
X200.9Y-54.5
X200.9Y-129.5
T6
X76.1Y-99.55
X76.1Y-102.09
X76.1Y-104.63
X76.1Y-107.17
X90.9Y-99.55
X90.9Y-102.09
X90.9Y-104.63
X90.9Y-107.17
T7
X209.91Y-48.79
X217.41Y-51.49
T8
X210.263Y-62.24
X210.263Y-69.24
X218.263Y-62.24
X218.263Y-69.24
T9
X110.6Y-85.92
X110.6Y-88.46
X110.6Y-91.0
X110.6Y-93.54
X110.6Y-96.08
X114.25Y-42.096
X114.25Y-44.636
X114.25Y-47.176
X114.25Y-49.716
X114.25Y-52.256
X114.25Y-54.796
X121.4Y-42.096
X121.4Y-44.636
X121.4Y-47.176
X121.4Y-49.716
X121.4Y-52.256
X121.4Y-54.796
X126.18Y-71.2
X128.66Y-91.2
X128.66Y-93.74
X128.72Y-71.2
X131.2Y-91.2
X131.2Y-93.74
X131.26Y-71.2
X133.74Y-91.2
X133.74Y-93.74
X133.8Y-71.2
X173.73Y-56.945
X173.73Y-59.485
T10
X78.21Y-71.25
X78.21Y-73.79
X78.21Y-76.33
X78.21Y-78.87
X78.21Y-81.41
X78.21Y-83.95
X78.21Y-86.49
X80.75Y-71.25
X80.75Y-73.79
X80.75Y-76.33
X80.75Y-78.87
X80.75Y-81.41
X80.75Y-83.95
X80.75Y-86.49
X206.34Y-56.43
X221.34Y-56.43
T11
X184.69Y-38.75
X189.77Y-38.75
T12
X172.806Y-77.477
X172.806Y-82.557
X172.806Y-97.797
X172.806Y-102.877
X218.526Y-90.177
X218.526Y-102.877
T13
X75.92Y-146.76
X79.88Y-146.76
X83.84Y-146.76
X87.8Y-146.76
X91.76Y-146.76
X95.72Y-146.76
X99.68Y-146.76
X103.64Y-146.76
X108.313Y-146.76
X112.273Y-146.76
X116.233Y-146.76
X120.193Y-146.76
X124.153Y-146.76
X127.93Y-38.7
X128.113Y-146.76
X131.89Y-38.7
X132.073Y-146.76
X135.85Y-38.7
X136.033Y-146.76
X140.707Y-146.76
X144.667Y-146.76
X148.627Y-146.76
X152.587Y-146.76
X156.547Y-146.76
X160.44Y-38.8
X160.507Y-146.76
X164.4Y-38.8
X164.467Y-146.76
X168.36Y-38.8
X168.427Y-146.76
X172.32Y-38.8
X173.1Y-146.76
X176.28Y-38.8
X177.06Y-146.76
X181.02Y-146.76
X184.98Y-146.76
X188.94Y-146.76
X192.9Y-146.76
X196.86Y-146.76
X200.82Y-146.76
T14
X197.59Y-40.05
X219.99Y-40.05
T15
X78.5Y-54.5
X78.5Y-129.5
X198.5Y-54.5
X198.5Y-129.5
T16
X146.8Y-82.653
X146.8Y-90.146
T0
M30
