%TF.GenerationSoftware,KiCad,Pcbnew,7.0.1*%
%TF.CreationDate,2023-03-18T18:06:22+07:00*%
%TF.ProjectId,dongtam,646f6e67-7461-46d2-9e6b-696361645f70,rev?*%
%TF.SameCoordinates,Original*%
%TF.FileFunction,Drillmap*%
%TF.FilePolarity,Positive*%
%FSLAX45Y45*%
G04 Gerber Fmt 4.5, Leading zero omitted, Abs format (unit mm)*
G04 Created by KiCad (PCBNEW 7.0.1) date 2023-03-18 18:06:22*
%MOMM*%
%LPD*%
G01*
G04 APERTURE LIST*
%ADD10C,0.100000*%
%ADD11C,0.200000*%
%ADD12C,0.124460*%
G04 APERTURE END LIST*
D10*
X18200000Y-10750000D02*
X18200000Y-7250000D01*
X18100000Y-7250000D02*
X18100000Y-10750000D01*
X7350000Y-3200000D02*
X22350000Y-3200000D01*
X22350000Y-15200000D01*
X7350000Y-15200000D01*
X7350000Y-3200000D01*
X18100000Y-10750000D02*
G75*
G03*
X18200000Y-10750000I50000J0D01*
G01*
X18200000Y-7250000D02*
G75*
G03*
X18100000Y-7250000I-50000J0D01*
G01*
D11*
D12*
X14617770Y-8203060D02*
X14742230Y-8327520D01*
X14742230Y-8203060D02*
X14617770Y-8327520D01*
X14617770Y-8952360D02*
X14742230Y-9076820D01*
X14742230Y-8952360D02*
X14617770Y-9076820D01*
D11*
X7592619Y-15517524D02*
X7592619Y-15317524D01*
X7592619Y-15317524D02*
X7640238Y-15317524D01*
X7640238Y-15317524D02*
X7668809Y-15327048D01*
X7668809Y-15327048D02*
X7687857Y-15346095D01*
X7687857Y-15346095D02*
X7697381Y-15365143D01*
X7697381Y-15365143D02*
X7706905Y-15403238D01*
X7706905Y-15403238D02*
X7706905Y-15431809D01*
X7706905Y-15431809D02*
X7697381Y-15469905D01*
X7697381Y-15469905D02*
X7687857Y-15488952D01*
X7687857Y-15488952D02*
X7668809Y-15508000D01*
X7668809Y-15508000D02*
X7640238Y-15517524D01*
X7640238Y-15517524D02*
X7592619Y-15517524D01*
X7792619Y-15517524D02*
X7792619Y-15384190D01*
X7792619Y-15422286D02*
X7802143Y-15403238D01*
X7802143Y-15403238D02*
X7811667Y-15393714D01*
X7811667Y-15393714D02*
X7830714Y-15384190D01*
X7830714Y-15384190D02*
X7849762Y-15384190D01*
X7916428Y-15517524D02*
X7916428Y-15384190D01*
X7916428Y-15317524D02*
X7906905Y-15327048D01*
X7906905Y-15327048D02*
X7916428Y-15336571D01*
X7916428Y-15336571D02*
X7925952Y-15327048D01*
X7925952Y-15327048D02*
X7916428Y-15317524D01*
X7916428Y-15317524D02*
X7916428Y-15336571D01*
X8040238Y-15517524D02*
X8021190Y-15508000D01*
X8021190Y-15508000D02*
X8011667Y-15488952D01*
X8011667Y-15488952D02*
X8011667Y-15317524D01*
X8145000Y-15517524D02*
X8125952Y-15508000D01*
X8125952Y-15508000D02*
X8116428Y-15488952D01*
X8116428Y-15488952D02*
X8116428Y-15317524D01*
X8373571Y-15517524D02*
X8373571Y-15317524D01*
X8373571Y-15317524D02*
X8440238Y-15460381D01*
X8440238Y-15460381D02*
X8506905Y-15317524D01*
X8506905Y-15317524D02*
X8506905Y-15517524D01*
X8687857Y-15517524D02*
X8687857Y-15412762D01*
X8687857Y-15412762D02*
X8678333Y-15393714D01*
X8678333Y-15393714D02*
X8659286Y-15384190D01*
X8659286Y-15384190D02*
X8621190Y-15384190D01*
X8621190Y-15384190D02*
X8602143Y-15393714D01*
X8687857Y-15508000D02*
X8668810Y-15517524D01*
X8668810Y-15517524D02*
X8621190Y-15517524D01*
X8621190Y-15517524D02*
X8602143Y-15508000D01*
X8602143Y-15508000D02*
X8592619Y-15488952D01*
X8592619Y-15488952D02*
X8592619Y-15469905D01*
X8592619Y-15469905D02*
X8602143Y-15450857D01*
X8602143Y-15450857D02*
X8621190Y-15441333D01*
X8621190Y-15441333D02*
X8668810Y-15441333D01*
X8668810Y-15441333D02*
X8687857Y-15431809D01*
X8783095Y-15384190D02*
X8783095Y-15584190D01*
X8783095Y-15393714D02*
X8802143Y-15384190D01*
X8802143Y-15384190D02*
X8840238Y-15384190D01*
X8840238Y-15384190D02*
X8859286Y-15393714D01*
X8859286Y-15393714D02*
X8868810Y-15403238D01*
X8868810Y-15403238D02*
X8878333Y-15422286D01*
X8878333Y-15422286D02*
X8878333Y-15479428D01*
X8878333Y-15479428D02*
X8868810Y-15498476D01*
X8868810Y-15498476D02*
X8859286Y-15508000D01*
X8859286Y-15508000D02*
X8840238Y-15517524D01*
X8840238Y-15517524D02*
X8802143Y-15517524D01*
X8802143Y-15517524D02*
X8783095Y-15508000D01*
X8964048Y-15498476D02*
X8973571Y-15508000D01*
X8973571Y-15508000D02*
X8964048Y-15517524D01*
X8964048Y-15517524D02*
X8954524Y-15508000D01*
X8954524Y-15508000D02*
X8964048Y-15498476D01*
X8964048Y-15498476D02*
X8964048Y-15517524D01*
X8964048Y-15393714D02*
X8973571Y-15403238D01*
X8973571Y-15403238D02*
X8964048Y-15412762D01*
X8964048Y-15412762D02*
X8954524Y-15403238D01*
X8954524Y-15403238D02*
X8964048Y-15393714D01*
X8964048Y-15393714D02*
X8964048Y-15412762D01*
D12*
X7220540Y-15782770D02*
X7345000Y-15907230D01*
X7345000Y-15782770D02*
X7220540Y-15907230D01*
D11*
X7697381Y-15937524D02*
X7583095Y-15937524D01*
X7640238Y-15937524D02*
X7640238Y-15737524D01*
X7640238Y-15737524D02*
X7621190Y-15766095D01*
X7621190Y-15766095D02*
X7602143Y-15785143D01*
X7602143Y-15785143D02*
X7583095Y-15794667D01*
X7783095Y-15918476D02*
X7792619Y-15928000D01*
X7792619Y-15928000D02*
X7783095Y-15937524D01*
X7783095Y-15937524D02*
X7773571Y-15928000D01*
X7773571Y-15928000D02*
X7783095Y-15918476D01*
X7783095Y-15918476D02*
X7783095Y-15937524D01*
X7868809Y-15756571D02*
X7878333Y-15747048D01*
X7878333Y-15747048D02*
X7897381Y-15737524D01*
X7897381Y-15737524D02*
X7945000Y-15737524D01*
X7945000Y-15737524D02*
X7964048Y-15747048D01*
X7964048Y-15747048D02*
X7973571Y-15756571D01*
X7973571Y-15756571D02*
X7983095Y-15775619D01*
X7983095Y-15775619D02*
X7983095Y-15794667D01*
X7983095Y-15794667D02*
X7973571Y-15823238D01*
X7973571Y-15823238D02*
X7859286Y-15937524D01*
X7859286Y-15937524D02*
X7983095Y-15937524D01*
X8154524Y-15804190D02*
X8154524Y-15937524D01*
X8106905Y-15728000D02*
X8059286Y-15870857D01*
X8059286Y-15870857D02*
X8183095Y-15870857D01*
X8354524Y-15737524D02*
X8259286Y-15737524D01*
X8259286Y-15737524D02*
X8249762Y-15832762D01*
X8249762Y-15832762D02*
X8259286Y-15823238D01*
X8259286Y-15823238D02*
X8278333Y-15813714D01*
X8278333Y-15813714D02*
X8325952Y-15813714D01*
X8325952Y-15813714D02*
X8345000Y-15823238D01*
X8345000Y-15823238D02*
X8354524Y-15832762D01*
X8354524Y-15832762D02*
X8364048Y-15851809D01*
X8364048Y-15851809D02*
X8364048Y-15899428D01*
X8364048Y-15899428D02*
X8354524Y-15918476D01*
X8354524Y-15918476D02*
X8345000Y-15928000D01*
X8345000Y-15928000D02*
X8325952Y-15937524D01*
X8325952Y-15937524D02*
X8278333Y-15937524D01*
X8278333Y-15937524D02*
X8259286Y-15928000D01*
X8259286Y-15928000D02*
X8249762Y-15918476D01*
X8449762Y-15937524D02*
X8449762Y-15804190D01*
X8449762Y-15823238D02*
X8459286Y-15813714D01*
X8459286Y-15813714D02*
X8478333Y-15804190D01*
X8478333Y-15804190D02*
X8506905Y-15804190D01*
X8506905Y-15804190D02*
X8525952Y-15813714D01*
X8525952Y-15813714D02*
X8535476Y-15832762D01*
X8535476Y-15832762D02*
X8535476Y-15937524D01*
X8535476Y-15832762D02*
X8545000Y-15813714D01*
X8545000Y-15813714D02*
X8564048Y-15804190D01*
X8564048Y-15804190D02*
X8592619Y-15804190D01*
X8592619Y-15804190D02*
X8611667Y-15813714D01*
X8611667Y-15813714D02*
X8621191Y-15832762D01*
X8621191Y-15832762D02*
X8621191Y-15937524D01*
X8716429Y-15937524D02*
X8716429Y-15804190D01*
X8716429Y-15823238D02*
X8725952Y-15813714D01*
X8725952Y-15813714D02*
X8745000Y-15804190D01*
X8745000Y-15804190D02*
X8773572Y-15804190D01*
X8773572Y-15804190D02*
X8792619Y-15813714D01*
X8792619Y-15813714D02*
X8802143Y-15832762D01*
X8802143Y-15832762D02*
X8802143Y-15937524D01*
X8802143Y-15832762D02*
X8811667Y-15813714D01*
X8811667Y-15813714D02*
X8830714Y-15804190D01*
X8830714Y-15804190D02*
X8859286Y-15804190D01*
X8859286Y-15804190D02*
X8878333Y-15813714D01*
X8878333Y-15813714D02*
X8887857Y-15832762D01*
X8887857Y-15832762D02*
X8887857Y-15937524D01*
X9278333Y-15728000D02*
X9106905Y-15985143D01*
X9535476Y-15737524D02*
X9554524Y-15737524D01*
X9554524Y-15737524D02*
X9573572Y-15747048D01*
X9573572Y-15747048D02*
X9583095Y-15756571D01*
X9583095Y-15756571D02*
X9592619Y-15775619D01*
X9592619Y-15775619D02*
X9602143Y-15813714D01*
X9602143Y-15813714D02*
X9602143Y-15861333D01*
X9602143Y-15861333D02*
X9592619Y-15899428D01*
X9592619Y-15899428D02*
X9583095Y-15918476D01*
X9583095Y-15918476D02*
X9573572Y-15928000D01*
X9573572Y-15928000D02*
X9554524Y-15937524D01*
X9554524Y-15937524D02*
X9535476Y-15937524D01*
X9535476Y-15937524D02*
X9516429Y-15928000D01*
X9516429Y-15928000D02*
X9506905Y-15918476D01*
X9506905Y-15918476D02*
X9497381Y-15899428D01*
X9497381Y-15899428D02*
X9487857Y-15861333D01*
X9487857Y-15861333D02*
X9487857Y-15813714D01*
X9487857Y-15813714D02*
X9497381Y-15775619D01*
X9497381Y-15775619D02*
X9506905Y-15756571D01*
X9506905Y-15756571D02*
X9516429Y-15747048D01*
X9516429Y-15747048D02*
X9535476Y-15737524D01*
X9687857Y-15918476D02*
X9697381Y-15928000D01*
X9697381Y-15928000D02*
X9687857Y-15937524D01*
X9687857Y-15937524D02*
X9678334Y-15928000D01*
X9678334Y-15928000D02*
X9687857Y-15918476D01*
X9687857Y-15918476D02*
X9687857Y-15937524D01*
X9821191Y-15737524D02*
X9840238Y-15737524D01*
X9840238Y-15737524D02*
X9859286Y-15747048D01*
X9859286Y-15747048D02*
X9868810Y-15756571D01*
X9868810Y-15756571D02*
X9878334Y-15775619D01*
X9878334Y-15775619D02*
X9887857Y-15813714D01*
X9887857Y-15813714D02*
X9887857Y-15861333D01*
X9887857Y-15861333D02*
X9878334Y-15899428D01*
X9878334Y-15899428D02*
X9868810Y-15918476D01*
X9868810Y-15918476D02*
X9859286Y-15928000D01*
X9859286Y-15928000D02*
X9840238Y-15937524D01*
X9840238Y-15937524D02*
X9821191Y-15937524D01*
X9821191Y-15937524D02*
X9802143Y-15928000D01*
X9802143Y-15928000D02*
X9792619Y-15918476D01*
X9792619Y-15918476D02*
X9783095Y-15899428D01*
X9783095Y-15899428D02*
X9773572Y-15861333D01*
X9773572Y-15861333D02*
X9773572Y-15813714D01*
X9773572Y-15813714D02*
X9783095Y-15775619D01*
X9783095Y-15775619D02*
X9792619Y-15756571D01*
X9792619Y-15756571D02*
X9802143Y-15747048D01*
X9802143Y-15747048D02*
X9821191Y-15737524D01*
X10059286Y-15804190D02*
X10059286Y-15937524D01*
X10011667Y-15728000D02*
X9964048Y-15870857D01*
X9964048Y-15870857D02*
X10087857Y-15870857D01*
X10173572Y-15937524D02*
X10211667Y-15937524D01*
X10211667Y-15937524D02*
X10230715Y-15928000D01*
X10230715Y-15928000D02*
X10240238Y-15918476D01*
X10240238Y-15918476D02*
X10259286Y-15889905D01*
X10259286Y-15889905D02*
X10268810Y-15851809D01*
X10268810Y-15851809D02*
X10268810Y-15775619D01*
X10268810Y-15775619D02*
X10259286Y-15756571D01*
X10259286Y-15756571D02*
X10249762Y-15747048D01*
X10249762Y-15747048D02*
X10230715Y-15737524D01*
X10230715Y-15737524D02*
X10192619Y-15737524D01*
X10192619Y-15737524D02*
X10173572Y-15747048D01*
X10173572Y-15747048D02*
X10164048Y-15756571D01*
X10164048Y-15756571D02*
X10154524Y-15775619D01*
X10154524Y-15775619D02*
X10154524Y-15823238D01*
X10154524Y-15823238D02*
X10164048Y-15842286D01*
X10164048Y-15842286D02*
X10173572Y-15851809D01*
X10173572Y-15851809D02*
X10192619Y-15861333D01*
X10192619Y-15861333D02*
X10230715Y-15861333D01*
X10230715Y-15861333D02*
X10249762Y-15851809D01*
X10249762Y-15851809D02*
X10259286Y-15842286D01*
X10259286Y-15842286D02*
X10268810Y-15823238D01*
X10392619Y-15737524D02*
X10411667Y-15737524D01*
X10411667Y-15737524D02*
X10430715Y-15747048D01*
X10430715Y-15747048D02*
X10440238Y-15756571D01*
X10440238Y-15756571D02*
X10449762Y-15775619D01*
X10449762Y-15775619D02*
X10459286Y-15813714D01*
X10459286Y-15813714D02*
X10459286Y-15861333D01*
X10459286Y-15861333D02*
X10449762Y-15899428D01*
X10449762Y-15899428D02*
X10440238Y-15918476D01*
X10440238Y-15918476D02*
X10430715Y-15928000D01*
X10430715Y-15928000D02*
X10411667Y-15937524D01*
X10411667Y-15937524D02*
X10392619Y-15937524D01*
X10392619Y-15937524D02*
X10373572Y-15928000D01*
X10373572Y-15928000D02*
X10364048Y-15918476D01*
X10364048Y-15918476D02*
X10354524Y-15899428D01*
X10354524Y-15899428D02*
X10345000Y-15861333D01*
X10345000Y-15861333D02*
X10345000Y-15813714D01*
X10345000Y-15813714D02*
X10354524Y-15775619D01*
X10354524Y-15775619D02*
X10364048Y-15756571D01*
X10364048Y-15756571D02*
X10373572Y-15747048D01*
X10373572Y-15747048D02*
X10392619Y-15737524D01*
X10535476Y-15737524D02*
X10535476Y-15775619D01*
X10611667Y-15737524D02*
X10611667Y-15775619D01*
X10906905Y-16013714D02*
X10897381Y-16004190D01*
X10897381Y-16004190D02*
X10878334Y-15975619D01*
X10878334Y-15975619D02*
X10868810Y-15956571D01*
X10868810Y-15956571D02*
X10859286Y-15928000D01*
X10859286Y-15928000D02*
X10849762Y-15880381D01*
X10849762Y-15880381D02*
X10849762Y-15842286D01*
X10849762Y-15842286D02*
X10859286Y-15794667D01*
X10859286Y-15794667D02*
X10868810Y-15766095D01*
X10868810Y-15766095D02*
X10878334Y-15747048D01*
X10878334Y-15747048D02*
X10897381Y-15718476D01*
X10897381Y-15718476D02*
X10906905Y-15708952D01*
X10973572Y-15756571D02*
X10983096Y-15747048D01*
X10983096Y-15747048D02*
X11002143Y-15737524D01*
X11002143Y-15737524D02*
X11049762Y-15737524D01*
X11049762Y-15737524D02*
X11068810Y-15747048D01*
X11068810Y-15747048D02*
X11078334Y-15756571D01*
X11078334Y-15756571D02*
X11087857Y-15775619D01*
X11087857Y-15775619D02*
X11087857Y-15794667D01*
X11087857Y-15794667D02*
X11078334Y-15823238D01*
X11078334Y-15823238D02*
X10964048Y-15937524D01*
X10964048Y-15937524D02*
X11087857Y-15937524D01*
X11325953Y-15937524D02*
X11325953Y-15737524D01*
X11411667Y-15937524D02*
X11411667Y-15832762D01*
X11411667Y-15832762D02*
X11402143Y-15813714D01*
X11402143Y-15813714D02*
X11383096Y-15804190D01*
X11383096Y-15804190D02*
X11354524Y-15804190D01*
X11354524Y-15804190D02*
X11335476Y-15813714D01*
X11335476Y-15813714D02*
X11325953Y-15823238D01*
X11535476Y-15937524D02*
X11516429Y-15928000D01*
X11516429Y-15928000D02*
X11506905Y-15918476D01*
X11506905Y-15918476D02*
X11497381Y-15899428D01*
X11497381Y-15899428D02*
X11497381Y-15842286D01*
X11497381Y-15842286D02*
X11506905Y-15823238D01*
X11506905Y-15823238D02*
X11516429Y-15813714D01*
X11516429Y-15813714D02*
X11535476Y-15804190D01*
X11535476Y-15804190D02*
X11564048Y-15804190D01*
X11564048Y-15804190D02*
X11583096Y-15813714D01*
X11583096Y-15813714D02*
X11592619Y-15823238D01*
X11592619Y-15823238D02*
X11602143Y-15842286D01*
X11602143Y-15842286D02*
X11602143Y-15899428D01*
X11602143Y-15899428D02*
X11592619Y-15918476D01*
X11592619Y-15918476D02*
X11583096Y-15928000D01*
X11583096Y-15928000D02*
X11564048Y-15937524D01*
X11564048Y-15937524D02*
X11535476Y-15937524D01*
X11716429Y-15937524D02*
X11697381Y-15928000D01*
X11697381Y-15928000D02*
X11687857Y-15908952D01*
X11687857Y-15908952D02*
X11687857Y-15737524D01*
X11868810Y-15928000D02*
X11849762Y-15937524D01*
X11849762Y-15937524D02*
X11811667Y-15937524D01*
X11811667Y-15937524D02*
X11792619Y-15928000D01*
X11792619Y-15928000D02*
X11783096Y-15908952D01*
X11783096Y-15908952D02*
X11783096Y-15832762D01*
X11783096Y-15832762D02*
X11792619Y-15813714D01*
X11792619Y-15813714D02*
X11811667Y-15804190D01*
X11811667Y-15804190D02*
X11849762Y-15804190D01*
X11849762Y-15804190D02*
X11868810Y-15813714D01*
X11868810Y-15813714D02*
X11878334Y-15832762D01*
X11878334Y-15832762D02*
X11878334Y-15851809D01*
X11878334Y-15851809D02*
X11783096Y-15870857D01*
X11954524Y-15928000D02*
X11973572Y-15937524D01*
X11973572Y-15937524D02*
X12011667Y-15937524D01*
X12011667Y-15937524D02*
X12030715Y-15928000D01*
X12030715Y-15928000D02*
X12040238Y-15908952D01*
X12040238Y-15908952D02*
X12040238Y-15899428D01*
X12040238Y-15899428D02*
X12030715Y-15880381D01*
X12030715Y-15880381D02*
X12011667Y-15870857D01*
X12011667Y-15870857D02*
X11983096Y-15870857D01*
X11983096Y-15870857D02*
X11964048Y-15861333D01*
X11964048Y-15861333D02*
X11954524Y-15842286D01*
X11954524Y-15842286D02*
X11954524Y-15832762D01*
X11954524Y-15832762D02*
X11964048Y-15813714D01*
X11964048Y-15813714D02*
X11983096Y-15804190D01*
X11983096Y-15804190D02*
X12011667Y-15804190D01*
X12011667Y-15804190D02*
X12030715Y-15813714D01*
X12106905Y-16013714D02*
X12116429Y-16004190D01*
X12116429Y-16004190D02*
X12135477Y-15975619D01*
X12135477Y-15975619D02*
X12145000Y-15956571D01*
X12145000Y-15956571D02*
X12154524Y-15928000D01*
X12154524Y-15928000D02*
X12164048Y-15880381D01*
X12164048Y-15880381D02*
X12164048Y-15842286D01*
X12164048Y-15842286D02*
X12154524Y-15794667D01*
X12154524Y-15794667D02*
X12145000Y-15766095D01*
X12145000Y-15766095D02*
X12135477Y-15747048D01*
X12135477Y-15747048D02*
X12116429Y-15718476D01*
X12116429Y-15718476D02*
X12106905Y-15708952D01*
X12468810Y-16013714D02*
X12459286Y-16004190D01*
X12459286Y-16004190D02*
X12440238Y-15975619D01*
X12440238Y-15975619D02*
X12430715Y-15956571D01*
X12430715Y-15956571D02*
X12421191Y-15928000D01*
X12421191Y-15928000D02*
X12411667Y-15880381D01*
X12411667Y-15880381D02*
X12411667Y-15842286D01*
X12411667Y-15842286D02*
X12421191Y-15794667D01*
X12421191Y-15794667D02*
X12430715Y-15766095D01*
X12430715Y-15766095D02*
X12440238Y-15747048D01*
X12440238Y-15747048D02*
X12459286Y-15718476D01*
X12459286Y-15718476D02*
X12468810Y-15708952D01*
X12545000Y-15804190D02*
X12545000Y-15937524D01*
X12545000Y-15823238D02*
X12554524Y-15813714D01*
X12554524Y-15813714D02*
X12573572Y-15804190D01*
X12573572Y-15804190D02*
X12602143Y-15804190D01*
X12602143Y-15804190D02*
X12621191Y-15813714D01*
X12621191Y-15813714D02*
X12630715Y-15832762D01*
X12630715Y-15832762D02*
X12630715Y-15937524D01*
X12754524Y-15937524D02*
X12735477Y-15928000D01*
X12735477Y-15928000D02*
X12725953Y-15918476D01*
X12725953Y-15918476D02*
X12716429Y-15899428D01*
X12716429Y-15899428D02*
X12716429Y-15842286D01*
X12716429Y-15842286D02*
X12725953Y-15823238D01*
X12725953Y-15823238D02*
X12735477Y-15813714D01*
X12735477Y-15813714D02*
X12754524Y-15804190D01*
X12754524Y-15804190D02*
X12783096Y-15804190D01*
X12783096Y-15804190D02*
X12802143Y-15813714D01*
X12802143Y-15813714D02*
X12811667Y-15823238D01*
X12811667Y-15823238D02*
X12821191Y-15842286D01*
X12821191Y-15842286D02*
X12821191Y-15899428D01*
X12821191Y-15899428D02*
X12811667Y-15918476D01*
X12811667Y-15918476D02*
X12802143Y-15928000D01*
X12802143Y-15928000D02*
X12783096Y-15937524D01*
X12783096Y-15937524D02*
X12754524Y-15937524D01*
X12878334Y-15804190D02*
X12954524Y-15804190D01*
X12906905Y-15737524D02*
X12906905Y-15908952D01*
X12906905Y-15908952D02*
X12916429Y-15928000D01*
X12916429Y-15928000D02*
X12935477Y-15937524D01*
X12935477Y-15937524D02*
X12954524Y-15937524D01*
X13173572Y-15804190D02*
X13173572Y-16004190D01*
X13173572Y-15813714D02*
X13192619Y-15804190D01*
X13192619Y-15804190D02*
X13230715Y-15804190D01*
X13230715Y-15804190D02*
X13249762Y-15813714D01*
X13249762Y-15813714D02*
X13259286Y-15823238D01*
X13259286Y-15823238D02*
X13268810Y-15842286D01*
X13268810Y-15842286D02*
X13268810Y-15899428D01*
X13268810Y-15899428D02*
X13259286Y-15918476D01*
X13259286Y-15918476D02*
X13249762Y-15928000D01*
X13249762Y-15928000D02*
X13230715Y-15937524D01*
X13230715Y-15937524D02*
X13192619Y-15937524D01*
X13192619Y-15937524D02*
X13173572Y-15928000D01*
X13383096Y-15937524D02*
X13364048Y-15928000D01*
X13364048Y-15928000D02*
X13354524Y-15908952D01*
X13354524Y-15908952D02*
X13354524Y-15737524D01*
X13545000Y-15937524D02*
X13545000Y-15832762D01*
X13545000Y-15832762D02*
X13535477Y-15813714D01*
X13535477Y-15813714D02*
X13516429Y-15804190D01*
X13516429Y-15804190D02*
X13478334Y-15804190D01*
X13478334Y-15804190D02*
X13459286Y-15813714D01*
X13545000Y-15928000D02*
X13525953Y-15937524D01*
X13525953Y-15937524D02*
X13478334Y-15937524D01*
X13478334Y-15937524D02*
X13459286Y-15928000D01*
X13459286Y-15928000D02*
X13449762Y-15908952D01*
X13449762Y-15908952D02*
X13449762Y-15889905D01*
X13449762Y-15889905D02*
X13459286Y-15870857D01*
X13459286Y-15870857D02*
X13478334Y-15861333D01*
X13478334Y-15861333D02*
X13525953Y-15861333D01*
X13525953Y-15861333D02*
X13545000Y-15851809D01*
X13611667Y-15804190D02*
X13687858Y-15804190D01*
X13640239Y-15737524D02*
X13640239Y-15908952D01*
X13640239Y-15908952D02*
X13649762Y-15928000D01*
X13649762Y-15928000D02*
X13668810Y-15937524D01*
X13668810Y-15937524D02*
X13687858Y-15937524D01*
X13830715Y-15928000D02*
X13811667Y-15937524D01*
X13811667Y-15937524D02*
X13773572Y-15937524D01*
X13773572Y-15937524D02*
X13754524Y-15928000D01*
X13754524Y-15928000D02*
X13745000Y-15908952D01*
X13745000Y-15908952D02*
X13745000Y-15832762D01*
X13745000Y-15832762D02*
X13754524Y-15813714D01*
X13754524Y-15813714D02*
X13773572Y-15804190D01*
X13773572Y-15804190D02*
X13811667Y-15804190D01*
X13811667Y-15804190D02*
X13830715Y-15813714D01*
X13830715Y-15813714D02*
X13840239Y-15832762D01*
X13840239Y-15832762D02*
X13840239Y-15851809D01*
X13840239Y-15851809D02*
X13745000Y-15870857D01*
X14011667Y-15937524D02*
X14011667Y-15737524D01*
X14011667Y-15928000D02*
X13992620Y-15937524D01*
X13992620Y-15937524D02*
X13954524Y-15937524D01*
X13954524Y-15937524D02*
X13935477Y-15928000D01*
X13935477Y-15928000D02*
X13925953Y-15918476D01*
X13925953Y-15918476D02*
X13916429Y-15899428D01*
X13916429Y-15899428D02*
X13916429Y-15842286D01*
X13916429Y-15842286D02*
X13925953Y-15823238D01*
X13925953Y-15823238D02*
X13935477Y-15813714D01*
X13935477Y-15813714D02*
X13954524Y-15804190D01*
X13954524Y-15804190D02*
X13992620Y-15804190D01*
X13992620Y-15804190D02*
X14011667Y-15813714D01*
X14087858Y-16013714D02*
X14097381Y-16004190D01*
X14097381Y-16004190D02*
X14116429Y-15975619D01*
X14116429Y-15975619D02*
X14125953Y-15956571D01*
X14125953Y-15956571D02*
X14135477Y-15928000D01*
X14135477Y-15928000D02*
X14145000Y-15880381D01*
X14145000Y-15880381D02*
X14145000Y-15842286D01*
X14145000Y-15842286D02*
X14135477Y-15794667D01*
X14135477Y-15794667D02*
X14125953Y-15766095D01*
X14125953Y-15766095D02*
X14116429Y-15747048D01*
X14116429Y-15747048D02*
X14097381Y-15718476D01*
X14097381Y-15718476D02*
X14087858Y-15708952D01*
M02*
